<svg xmlns="http://www.w3.org/2000/svg" width="64" height="64" viewBox="0 0 64 64" role="img" aria-label="Bathora favicon">
  <defs>
    <linearGradient id="bg" x1="0" y1="0" x2="1" y2="1">
      <stop offset="0" stop-color="#0E1015"/>
      <stop offset="1" stop-color="#1A1F27"/>
    </linearGradient>
    <linearGradient id="gold" x1="0" y1="0" x2="0" y2="1">
      <stop offset="0" stop-color="#F1E2C3"/>
      <stop offset="1" stop-color="#B89463"/>
    </linearGradient>
  </defs>

  <rect x="4" y="4" width="56" height="56" rx="14" fill="url(#bg)"/>

  <path
    d="M32 12c-6.4 8.6-12 15.1-12 24.1C20 46.4 25.8 52 32 52s12-5.6 12-15.9C44 27.1 38.4 20.6 32 12Z"
    fill="url(#gold)"/>

  <path
    d="M32 12c-6.4 8.6-12 15.1-12 24.1C20 46.4 25.8 52 32 52s12-5.6 12-15.9C44 27.1 38.4 20.6 32 12Z"
    fill="none"
    stroke="#8F6E43"
    stroke-width="2.2"
    stroke-linejoin="round"/>

  <path
    d="M27 24c-2.2 3.6-4 6.8-4 11.6c0 6.4 3.2 10.4 7 12.1c-2.8-2.4-4.7-5.8-4.7-10.5c0-4 1.2-7 1.7-9.1Z"
    fill="#FFFFFF"
    opacity="0.18"/>
</svg>
